<svg xmlns="http://www.w3.org/2000/svg" viewBox="0 0 50 50" width="50" height="50">
 <path d="m0 1v5l1 1h4v3h-4l-1 1v5l1 1h5l1-1v-4h3v26h-3v-4l-1-1h-5l-1 1v5l1 1h4v3h-4l-1 1v5l1 1h5l1-1v-4h3v4l1 1h5l1-1v-5l-1-1h-4v-3h26v3h-4l-1 1v5l1 1h5l1-1v-4h3v4l1 1h5l1-1v-5l-1-1h-4v-3h4l1-1v-5l-1-1h-5l-1 1v4h-3v-26h3v4l1 1h5l1-1v-5l-1-1h-4v-3h4l1-1v-5l-1-1h-5l-1 1v4h-3v-4l-1-1h-5l-1 1v5l1 1h4v3c-8.667 0-17.333 0-26 0v-3h4l1-1v-5l-1-1h-5l-1 1v4h-3v-4l-1-1h-5zm2 1h3v3h-3zm10 0h3v3h-3zm23 0h3v3h-3zm10 0h3v3h-3zm-38 5h3v3h-3zm33 0h3v3h-3zm-38 5h3v3h-3zm10 0h26v26h-26zm33 0h3v3h-3zm-43 23h3v3h-3zm43 0h3v3h-3zm-38 5h3v3h-3zm33 0h3v3h-3zm-38 5h3v3h-3zm10 0h3v3h-3zm23 0h3v3h-3zm10 0h3v3h-3z" style="color:#000"/>
</svg>
